<svg width="253" height="121" viewBox="0 0 253 121" fill="none" xmlns="http://www.w3.org/2000/svg">
<g filter="url(#filter0_d_1_206)">
<path d="M124.326 90.4439L85.4696 2.01066H99.0947L134.797 83.6219H126.976L162.93 2.01066H175.546L136.816 90.4439H124.326Z" fill="url(#paint0_linear_1_206)"/>
<path d="M155.368 90.4439L195.36 2.01066H207.849L247.968 90.4439H234.721L199.018 9.08531H204.065L168.362 90.4439H155.368ZM172.399 68.3356L175.805 58.2289H225.512L229.17 68.3356H172.399Z" fill="url(#paint1_linear_1_206)"/>
<path d="M49.6784 91.4545C42.9499 91.4545 36.7262 90.3596 31.007 88.1699C25.372 85.8959 20.4518 82.7375 16.2466 78.6949C12.1254 74.568 8.88736 69.7673 6.53242 64.2929C4.17747 58.8185 3 52.7966 3 46.2273C3 39.6579 4.17747 33.6361 6.53242 28.1616C8.88736 22.6872 12.1675 17.9286 16.3727 13.886C20.578 9.75909 25.4981 6.60076 31.1332 4.41099C36.8523 2.137 43.0761 1 49.8045 1C56.617 1 62.8829 2.17911 68.602 4.53733C74.4053 6.81132 79.3254 10.2223 83.3625 14.7703L75.1622 22.7293C71.798 19.192 68.0133 16.5811 63.808 14.8966C59.6028 13.128 55.1031 12.2436 50.3091 12.2436C45.3469 12.2436 40.7212 13.0859 36.4318 14.7703C32.2265 16.4547 28.568 18.813 25.4561 21.845C22.3442 24.877 19.9051 28.4985 18.1389 32.7096C16.4568 36.8365 15.6158 41.3424 15.6158 46.2273C15.6158 51.1121 16.4568 55.6601 18.1389 59.8712C19.9051 63.9981 22.3442 67.5776 25.4561 70.6096C28.568 73.6415 32.2265 75.9998 36.4318 77.6842C40.7212 79.3687 45.3469 80.2109 50.3091 80.2109C55.1031 80.2109 59.6028 79.3687 63.808 77.6842C68.0133 75.9155 71.798 73.2204 75.1622 69.5989L83.3625 77.5579C79.3254 82.1059 74.4053 85.559 68.602 87.9172C62.8829 90.2754 56.575 91.4545 49.6784 91.4545Z" fill="url(#paint2_linear_1_206)"/>
</g>
<path d="M206.121 57.9767H220.312L225.113 68.9214H206.588L206.121 57.9767Z" fill="url(#paint3_linear_1_206)"/>
<path d="M76.165 120.748V98.6651H78.7518L88.6574 115.353H87.2694L97.0488 98.6651H99.6356L99.6671 120.748H96.6387L96.6071 103.429H97.3327L88.6259 118.066H87.1747L78.4048 103.429H79.1935V120.748H76.165Z" fill="#FCFCFC"/>
<path d="M102.603 120.748L112.604 98.6651H115.727L125.758 120.748H122.446L113.518 100.432H114.78L105.853 120.748H102.603ZM106.862 115.227L107.714 112.703H120.143L121.058 115.227H106.862Z" fill="#FCFCFC"/>
<path d="M138.366 121C136.663 121 135.096 120.727 133.666 120.18C132.236 119.612 130.995 118.823 129.943 117.814C128.892 116.783 128.072 115.584 127.483 114.217C126.894 112.85 126.599 111.347 126.599 109.706C126.599 108.066 126.894 106.562 127.483 105.195C128.072 103.828 128.892 102.64 129.943 101.63C131.016 100.6 132.267 99.8113 133.697 99.2645C135.127 98.6966 136.705 98.4127 138.429 98.4127C140.175 98.4127 141.773 98.6966 143.224 99.2645C144.675 99.8323 145.906 100.684 146.915 101.82L144.959 103.776C144.055 102.892 143.067 102.251 141.994 101.851C140.942 101.431 139.796 101.22 138.555 101.22C137.294 101.22 136.116 101.431 135.022 101.851C133.95 102.272 133.014 102.861 132.215 103.618C131.436 104.375 130.827 105.279 130.385 106.331C129.964 107.361 129.754 108.487 129.754 109.706C129.754 110.905 129.964 112.03 130.385 113.082C130.827 114.112 131.436 115.017 132.215 115.795C133.014 116.552 133.95 117.141 135.022 117.561C136.095 117.982 137.262 118.192 138.524 118.192C139.702 118.192 140.827 118.014 141.899 117.656C142.993 117.277 144.002 116.657 144.928 115.795L146.726 118.192C145.632 119.118 144.349 119.822 142.877 120.306C141.426 120.769 139.922 121 138.366 121ZM143.698 117.782V109.58H146.726V118.192L143.698 117.782Z" fill="#FCFCFC"/>
<path d="M149.075 120.748L159.075 98.6651H162.198L172.23 120.748H168.918L159.99 100.432H161.252L152.324 120.748H149.075ZM153.334 115.227L154.185 112.703H166.615L167.53 115.227H153.334Z" fill="#FCFCFC"/>
<path d="M173.221 120.748V118.602L188.08 100.179L188.427 101.41H173.442V98.6651H191.266V100.81L176.471 119.233L176.092 118.003H191.676V120.748H173.221Z" fill="#FCFCFC"/>
<path d="M195.563 120.748V98.6651H198.718V120.748H195.563Z" fill="#FCFCFC"/>
<path d="M204.982 120.748V98.6651H207.569L222.175 116.804H220.818V98.6651H223.973V120.748H221.386L206.78 102.608H208.137V120.748H204.982Z" fill="#FCFCFC"/>
<path d="M233.106 108.192H244.463V110.874H233.106V108.192ZM233.39 118.003H246.261V120.748H230.236V98.6651H245.82V101.41H233.39V118.003Z" fill="#FCFCFC"/>
<defs>
<filter id="filter0_d_1_206" x="0" y="0" width="252.968" height="98.4545" filterUnits="userSpaceOnUse" color-interpolation-filters="sRGB">
<feFlood flood-opacity="0" result="BackgroundImageFix"/>
<feColorMatrix in="SourceAlpha" type="matrix" values="0 0 0 0 0 0 0 0 0 0 0 0 0 0 0 0 0 0 127 0" result="hardAlpha"/>
<feOffset dx="1" dy="3"/>
<feGaussianBlur stdDeviation="2"/>
<feComposite in2="hardAlpha" operator="out"/>
<feColorMatrix type="matrix" values="0 0 0 0 0 0 0 0 0 0 0 0 0 0 0 0 0 0 1 0"/>
<feBlend mode="normal" in2="BackgroundImageFix" result="effect1_dropShadow_1_206"/>
<feBlend mode="normal" in="SourceGraphic" in2="effect1_dropShadow_1_206" result="shape"/>
</filter>
<linearGradient id="paint0_linear_1_206" x1="343.233" y1="-55.1153" x2="367.596" y2="21.2245" gradientUnits="userSpaceOnUse">
<stop stop-color="#976F2F"/>
<stop offset="0.515625" stop-color="#FFE3B6"/>
<stop offset="1" stop-color="#9E6D2E"/>
</linearGradient>
<linearGradient id="paint1_linear_1_206" x1="343.233" y1="-55.1153" x2="367.596" y2="21.2245" gradientUnits="userSpaceOnUse">
<stop stop-color="#976F2F"/>
<stop offset="0.515625" stop-color="#FFE3B6"/>
<stop offset="1" stop-color="#9E6D2E"/>
</linearGradient>
<linearGradient id="paint2_linear_1_206" x1="343.233" y1="-55.1153" x2="367.596" y2="21.2245" gradientUnits="userSpaceOnUse">
<stop stop-color="#976F2F"/>
<stop offset="0.515625" stop-color="#FFE3B6"/>
<stop offset="1" stop-color="#9E6D2E"/>
</linearGradient>
<linearGradient id="paint3_linear_1_206" x1="222.634" y1="62.3064" x2="210.392" y2="67.7752" gradientUnits="userSpaceOnUse">
<stop/>
<stop offset="1" stop-opacity="0"/>
</linearGradient>
</defs>
</svg>
